<svg width="30" height="30" viewBox="0 0 30 30" fill="none" xmlns="http://www.w3.org/2000/svg">
<path d="M25 0H5C3.67392 0 2.40215 0.526784 1.46447 1.46447C0.526784 2.40215 0 3.67392 0 5V25C0 26.3261 0.526784 27.5979 1.46447 28.5355C2.40215 29.4732 3.67392 30 5 30H25C26.3261 30 27.5979 29.4732 28.5355 28.5355C29.4732 27.5979 30 26.3261 30 25V5C30 3.67392 29.4732 2.40215 28.5355 1.46447C27.5979 0.526784 26.3261 0 25 0ZM22.1667 11.0167L14.55 21.0167C14.3947 21.2184 14.1953 21.3818 13.9671 21.4945C13.7389 21.6072 13.4879 21.6661 13.2333 21.6667C12.9802 21.668 12.73 21.6117 12.5019 21.502C12.2738 21.3922 12.0736 21.232 11.9167 21.0333L7.85 15.85C7.71539 15.6771 7.61616 15.4794 7.55797 15.2681C7.49978 15.0569 7.48377 14.8362 7.51086 14.6188C7.53794 14.4013 7.60759 14.1913 7.71582 14.0008C7.82406 13.8103 7.96876 13.6429 8.14167 13.5083C8.49087 13.2365 8.93376 13.1145 9.37291 13.1692C9.59035 13.1963 9.80033 13.2659 9.99086 13.3742C10.1814 13.4824 10.3487 13.6271 10.4833 13.8L13.2 17.2667L19.5 8.93333C19.6335 8.75824 19.8002 8.61115 19.9906 8.50048C20.1809 8.3898 20.3912 8.3177 20.6094 8.2883C20.8276 8.25889 21.0495 8.27276 21.2624 8.3291C21.4752 8.38544 21.6749 8.48316 21.85 8.61667C22.0251 8.75018 22.1722 8.91687 22.2829 9.10722C22.3935 9.29758 22.4656 9.50786 22.495 9.72608C22.5244 9.9443 22.5106 10.1662 22.4542 10.379C22.3979 10.5919 22.3002 10.7916 22.1667 10.9667V11.0167Z" fill="#4CBC9A"/>
</svg>
