<svg width="36" height="54" viewBox="0 0 36 54" fill="none" xmlns="http://www.w3.org/2000/svg">
<path fill-rule="evenodd" clip-rule="evenodd" d="M18 0.514771C8.08594 0.514771 0 8.45442 0 18.1891C0 20.9507 1.14063 24.1189 2.6875 27.5786C4.23438 31.0383 6.22656 34.7128 8.25 38.1341C12.2969 44.9845 16.375 50.7148 16.375 50.7148L18 53.0468L19.625 50.7148C19.625 50.7148 23.7031 44.9845 27.75 38.1341C29.7734 34.7128 31.7656 31.0383 33.3125 27.5786C34.8594 24.1189 36 20.9507 36 18.1891C36 8.45442 27.9141 0.514771 18 0.514771ZM18 4.44243C25.7578 4.44243 32 10.5717 32 18.1891C32 19.7617 31.1406 22.7381 29.6875 25.983C28.2344 29.2279 26.2266 32.8257 24.25 36.1703C21.1955 41.3481 19.2643 44.1531 18.0969 45.8486L18.0969 45.8487L18 45.9894L17.9031 45.8487C16.7358 44.1532 14.8046 41.3482 11.75 36.1703C9.77344 32.8257 7.76563 29.2279 6.3125 25.983C4.85938 22.7381 4 19.7617 4 18.1891C4 10.5717 10.2422 4.44243 18 4.44243ZM14 18.1891C14 16.0182 15.7891 14.2615 18 14.2615C20.2109 14.2615 22 16.0182 22 18.1891C22 20.3601 20.2109 22.1168 18 22.1168C15.7891 22.1168 14 20.3601 14 18.1891Z" fill="#55A74A"/>
</svg>
